<svg width="1440" height="2319" viewBox="0 0 1440 2319" fill="none" xmlns="http://www.w3.org/2000/svg">
<path d="M1154.36 652.132C1395.31 720.566 1601.9 823.116 1741.12 933.577C1810.73 988.808 1863.49 1046 1895.28 1101.88C1927.07 1157.75 1937.89 1212.27 1923.71 1262.19C1909.53 1312.12 1871.67 1352.81 1815.25 1383.63C1758.84 1414.45 1683.9 1435.38 1595.65 1445.78C1419.15 1466.56 1189.5 1445.22 948.55 1376.78C707.599 1308.35 501.014 1205.8 361.791 1095.34C292.178 1040.11 239.427 982.914 207.635 927.04C175.843 871.167 165.027 816.649 179.207 766.724C193.386 716.799 231.244 676.105 287.658 645.284C344.074 614.462 419.012 593.535 507.264 583.14C683.764 562.35 913.413 583.698 1154.36 652.132Z" stroke="#2E2E2E"/>
<path d="M1160.67 653.983C1400.39 726.612 1605.15 832.752 1742.43 945.626C1811.07 1002.06 1862.81 1060.17 1893.62 1116.59C1924.44 1173.01 1934.3 1227.71 1919.25 1277.38C1904.2 1327.05 1865.64 1367.07 1808.7 1396.91C1751.75 1426.74 1676.46 1446.35 1588.04 1455.21C1411.2 1472.91 1181.96 1447.56 942.242 1374.93C702.523 1302.3 497.758 1196.16 360.484 1083.29C291.846 1026.85 240.102 968.747 209.289 912.326C178.477 855.907 168.614 801.209 183.663 751.539C198.712 701.869 237.274 661.842 294.217 632.01C351.163 602.178 426.455 582.562 514.874 573.709C691.71 556.002 920.952 581.355 1160.67 653.983Z" stroke="#2E2E2E"/>
<path d="M1166.95 655.944C1405.36 732.745 1608.24 842.443 1743.52 957.695C1811.17 1015.32 1861.89 1074.32 1891.71 1131.27C1921.54 1188.22 1930.44 1243.08 1914.53 1292.48C1898.62 1341.88 1859.36 1381.23 1801.91 1410.06C1744.45 1438.9 1668.83 1457.2 1580.26 1464.5C1403.15 1479.12 1174.38 1449.77 935.968 1372.97C697.552 1296.17 494.671 1186.47 359.388 1071.22C291.746 1013.59 241.023 954.594 211.2 897.643C181.378 840.695 172.471 785.833 188.384 736.433C204.297 687.033 243.552 647.686 301.008 618.852C358.465 590.018 434.088 571.719 522.648 564.411C699.767 549.793 928.53 579.142 1166.95 655.944Z" stroke="#2E2E2E"/>
<path d="M1173.19 658.014C1410.22 738.965 1611.16 852.187 1744.41 969.782C1811.04 1028.58 1860.72 1088.46 1889.55 1145.92C1918.37 1203.38 1926.32 1258.39 1909.55 1307.5C1892.77 1356.62 1852.84 1395.27 1794.89 1423.1C1736.94 1450.93 1661 1467.9 1572.33 1473.66C1394.98 1485.19 1166.77 1451.85 929.728 1370.9C692.69 1289.95 491.754 1176.73 358.503 1059.13C291.877 1000.33 242.191 940.459 213.367 882.997C184.543 825.537 176.595 770.528 193.368 721.413C210.141 672.299 250.077 633.642 308.026 605.816C365.978 577.989 441.909 561.013 530.583 555.251C707.93 543.726 936.146 577.064 1173.19 658.014Z" stroke="#2E2E2E"/>
<path d="M1179.39 660.193C1414.98 745.268 1613.91 861.98 1745.08 981.883C1810.67 1041.84 1859.31 1102.57 1887.12 1160.53C1914.94 1218.48 1921.93 1273.62 1904.3 1322.43C1886.67 1371.25 1846.07 1409.2 1787.64 1436.01C1729.21 1462.82 1653 1478.47 1564.24 1482.69C1386.72 1491.11 1159.12 1453.8 923.526 1368.72C687.936 1283.65 489.007 1166.94 357.829 1047.03C292.239 987.08 243.606 926.347 215.788 868.391C187.972 810.436 180.985 755.297 198.612 706.482C216.24 657.668 256.844 619.714 315.271 592.904C373.699 566.092 449.915 550.444 538.677 546.23C716.197 537.803 943.797 575.118 1179.39 660.193Z" stroke="#2E2E2E"/>
<path d="M1185.55 662.48C1419.62 751.654 1616.48 871.819 1745.55 993.993C1810.08 1055.08 1857.65 1116.65 1884.45 1175.09C1911.25 1233.52 1917.27 1288.77 1898.8 1337.27C1880.32 1385.77 1839.06 1423.01 1780.17 1448.8C1721.29 1474.58 1644.81 1488.9 1555.99 1491.56C1378.35 1496.89 1151.43 1455.61 917.363 1366.44C683.294 1277.26 486.432 1157.1 357.366 1034.92C292.832 973.834 245.267 912.261 218.465 853.828C191.664 795.397 185.641 740.144 204.118 691.645C222.594 643.146 263.855 605.906 322.74 580.12C381.628 554.332 458.105 540.016 546.927 537.352C724.567 532.024 951.481 573.306 1185.55 662.48Z" stroke="#2E2E2E"/>
<path d="M1191.67 664.873C1424.15 758.118 1618.88 881.701 1745.8 1006.11C1809.26 1068.31 1855.74 1130.71 1881.52 1189.6C1907.3 1248.49 1912.35 1303.84 1893.03 1352.01C1873.71 1400.18 1831.81 1436.69 1772.48 1461.45C1713.15 1486.2 1636.44 1499.18 1547.58 1500.3C1369.88 1502.52 1143.72 1457.29 911.24 1364.04C678.763 1270.8 484.029 1147.21 357.115 1022.8C293.657 960.6 247.173 898.206 221.395 839.314C195.618 780.425 190.56 725.075 209.881 676.905C229.201 628.736 271.105 592.222 330.432 567.467C389.76 542.711 466.476 529.732 555.33 528.619C733.037 526.392 959.196 571.628 1191.67 664.873Z" stroke="#2E2E2E"/>
<path d="M1197.75 667.373C1428.57 764.661 1621.11 891.624 1745.84 1018.23C1808.2 1081.53 1853.59 1144.73 1878.33 1204.06C1903.08 1263.39 1907.17 1318.82 1887.01 1366.64C1866.86 1414.47 1824.32 1450.25 1764.57 1473.96C1704.82 1497.68 1627.89 1509.32 1539.03 1508.88C1361.31 1508 1135.97 1458.83 905.161 1361.54C674.346 1264.25 481.798 1137.29 357.075 1010.68C294.712 947.382 249.325 884.187 224.578 824.854C199.833 765.523 195.741 710.094 215.9 662.269C236.058 614.444 278.593 578.667 338.342 554.951C398.094 531.234 475.024 519.596 563.885 520.034C741.603 520.909 966.938 570.084 1197.75 667.373Z" stroke="#2E2E2E"/>
<path d="M1203.79 669.979C1432.87 771.281 1623.17 901.584 1745.67 1030.35C1806.92 1094.73 1851.19 1158.71 1874.9 1218.46C1898.61 1278.21 1901.73 1333.71 1880.74 1381.17C1859.75 1428.64 1816.6 1463.67 1756.44 1486.34C1696.29 1509.01 1619.16 1519.3 1530.33 1517.31C1352.65 1513.34 1128.21 1460.24 899.126 1358.93C670.044 1257.63 479.741 1127.33 357.247 998.567C295.998 934.185 251.72 870.207 228.013 810.452C204.307 750.698 201.184 695.206 222.174 647.74C243.164 600.274 286.317 565.245 346.471 542.576C406.627 519.905 483.749 509.611 572.588 511.6C750.264 515.576 974.707 568.677 1203.79 669.979Z" stroke="#2E2E2E"/>
<path d="M1209.78 672.69C1437.06 777.975 1625.05 911.58 1745.28 1042.46C1805.4 1107.9 1848.55 1172.64 1871.21 1232.8C1893.87 1292.96 1896.03 1348.5 1874.21 1395.59C1852.4 1442.68 1808.64 1476.95 1748.1 1498.57C1687.56 1520.19 1610.27 1529.13 1521.48 1525.59C1343.9 1518.52 1120.42 1461.51 893.137 1356.22C665.858 1250.94 477.859 1117.33 357.63 986.454C297.514 921.013 254.36 856.273 231.699 796.112C209.039 735.954 206.885 680.416 228.7 633.323C250.515 586.231 294.273 551.961 354.814 530.344C415.357 508.727 492.646 499.781 581.437 503.32C759.016 510.396 982.498 567.406 1209.78 672.69Z" stroke="#2E2E2E"/>
<path d="M1215.72 675.506C1441.12 784.741 1626.76 921.606 1744.69 1054.56C1803.65 1121.04 1845.67 1186.53 1867.28 1247.08C1888.88 1307.62 1890.07 1363.19 1867.44 1409.89C1844.8 1456.6 1800.45 1490.1 1739.54 1510.65C1678.63 1531.21 1601.2 1538.81 1512.48 1533.72C1335.05 1523.55 1112.6 1462.64 887.196 1353.41C661.79 1244.17 476.15 1107.31 358.224 974.35C299.26 907.87 257.241 842.386 235.634 781.839C214.028 721.295 212.843 665.727 235.477 619.023C258.11 572.318 302.459 538.817 363.368 518.26C424.279 497.703 501.713 490.107 590.429 495.195C767.858 505.369 990.311 566.271 1215.72 675.506Z" stroke="#2E2E2E"/>
<path d="M1221.61 678.423C1445.07 791.576 1628.3 931.66 1743.88 1066.66C1801.68 1134.16 1842.55 1200.36 1863.09 1261.28C1883.64 1322.19 1883.86 1377.77 1860.41 1424.07C1836.97 1470.37 1792.04 1503.1 1730.78 1522.59C1669.52 1542.08 1591.97 1548.32 1503.35 1541.69C1326.13 1528.42 1104.77 1463.64 881.306 1350.49C657.84 1237.34 474.618 1097.25 359.03 962.257C301.235 894.757 260.366 828.55 239.819 767.636C219.272 706.724 219.057 651.143 242.503 604.841C265.948 558.539 310.875 525.816 372.133 506.326C433.394 486.835 510.948 480.592 599.562 487.227C776.786 500.497 998.142 565.271 1221.61 678.423Z" stroke="#2E2E2E"/>
<path d="M1227.45 681.444C1448.9 798.479 1629.65 941.74 1742.87 1078.73C1799.48 1147.23 1839.18 1214.14 1858.66 1275.4C1878.14 1336.67 1877.39 1392.24 1853.14 1438.13C1828.89 1484.01 1783.4 1515.95 1721.81 1534.37C1660.22 1552.78 1582.57 1557.67 1494.08 1549.49C1317.12 1533.13 1096.92 1464.5 875.467 1347.47C654.01 1230.43 473.261 1087.17 360.046 950.18C303.438 881.682 263.731 814.772 244.25 753.508C224.77 692.247 225.525 636.671 249.775 590.785C274.025 544.899 319.516 512.966 381.105 494.547C442.696 476.129 520.348 471.24 608.832 479.42C785.798 495.781 1005.99 564.409 1227.45 681.444Z" stroke="#2E2E2E"/>
<path d="M1233.23 684.565C1452.61 805.448 1630.83 951.841 1741.64 1090.79C1797.04 1160.26 1835.58 1227.86 1853.99 1289.45C1872.4 1351.04 1870.67 1406.6 1845.62 1452.05C1820.58 1497.51 1774.53 1528.64 1712.63 1545.98C1650.73 1563.33 1573 1566.86 1484.68 1557.14C1308.02 1537.69 1089.06 1465.23 869.683 1344.35C650.302 1223.46 472.08 1077.07 361.274 938.122C305.87 868.647 267.336 801.054 248.928 739.46C230.52 677.867 232.244 622.314 257.291 576.858C282.338 531.402 328.38 500.267 390.281 482.927C452.185 465.586 529.91 462.053 618.238 471.776C794.891 491.223 1013.85 563.683 1233.23 684.565Z" stroke="#2E2E2E"/>
<path d="M1238.96 687.789C1456.2 812.481 1631.84 961.963 1740.2 1102.82C1794.39 1173.26 1831.73 1241.51 1849.06 1303.42C1866.4 1365.32 1863.7 1420.84 1837.86 1465.85C1812.03 1510.86 1765.45 1541.19 1703.26 1557.44C1641.06 1573.7 1563.28 1575.88 1475.14 1564.61C1298.85 1542.09 1081.19 1465.82 863.952 1341.12C646.715 1216.43 471.075 1066.95 362.71 926.089C308.527 855.658 271.18 787.403 253.849 725.496C236.518 663.592 239.213 608.077 265.049 563.065C290.885 518.053 337.463 487.727 399.658 471.47C461.854 455.211 539.629 453.036 627.774 464.299C804.061 486.826 1021.72 563.097 1238.96 687.789Z" stroke="#2E2E2E"/>
<path d="M1244.63 691.112C1459.66 819.576 1632.67 972.101 1738.56 1114.83C1791.5 1186.2 1827.65 1255.09 1843.9 1317.29C1860.15 1379.49 1856.49 1434.95 1829.87 1479.5C1803.25 1524.06 1756.15 1553.57 1693.68 1568.74C1631.21 1583.91 1553.41 1584.73 1465.47 1571.93C1289.61 1546.32 1073.31 1466.27 858.28 1337.8C643.252 1209.34 470.247 1056.81 364.358 914.083C311.412 842.717 275.261 773.82 259.013 711.62C242.766 649.423 246.429 593.964 273.047 549.41C299.665 504.856 346.765 475.347 409.234 460.177C471.705 445.007 549.506 444.189 637.44 456.989C813.307 482.589 1029.61 562.647 1244.63 691.112Z" stroke="#2E2E2E"/>
<path d="M1250.25 694.532C1463 826.73 1633.32 982.25 1736.7 1126.81C1788.39 1199.09 1823.33 1268.6 1838.49 1331.08C1853.65 1393.55 1849.02 1448.94 1821.63 1493.02C1794.24 1537.1 1746.63 1565.78 1683.91 1579.86C1621.18 1593.94 1543.38 1593.4 1455.68 1579.07C1280.29 1550.4 1065.42 1466.58 852.666 1334.38C639.913 1202.18 469.597 1046.66 366.214 902.106C314.522 829.827 279.579 760.31 264.419 697.836C249.26 635.365 253.89 579.978 281.281 535.895C308.673 491.812 356.281 463.13 419.005 449.053C481.731 434.975 559.535 435.515 647.233 449.848C822.626 478.513 1037.49 562.334 1250.25 694.532Z" stroke="#2E2E2E"/>
<path d="M1255.8 698.05C1466.21 833.941 1633.79 992.41 1734.63 1138.75C1785.06 1211.92 1818.78 1282.04 1832.85 1344.76C1846.92 1407.49 1841.32 1462.79 1813.16 1506.39C1785.01 1549.99 1736.9 1577.83 1673.94 1590.81C1610.98 1603.79 1533.2 1601.9 1445.77 1586.03C1270.9 1554.31 1057.53 1466.75 847.113 1330.86C636.699 1194.97 469.123 1036.5 368.279 890.164C317.857 816.994 284.132 746.877 270.065 684.149C255.998 621.423 261.594 566.125 289.751 522.527C317.908 478.929 366.009 451.082 428.969 438.101C491.931 425.121 569.713 427.018 657.148 442.88C832.014 474.602 1045.39 562.159 1255.8 698.05Z" stroke="#2E2E2E"/>
<path d="M1261.29 701.664C1469.3 841.207 1634.09 1002.58 1732.36 1150.65C1781.5 1224.69 1814 1295.39 1826.97 1358.35C1839.94 1421.31 1833.38 1476.51 1804.46 1519.61C1775.55 1562.71 1726.97 1589.71 1663.79 1601.59C1600.61 1613.47 1522.87 1610.21 1435.73 1592.83C1261.44 1558.06 1049.63 1466.79 841.622 1327.25C633.612 1187.71 468.827 1026.34 370.553 878.26C321.415 804.221 288.919 733.526 275.949 670.562C262.979 607.599 269.539 552.407 298.452 509.308C327.366 466.208 375.946 439.204 439.123 427.325C502.302 415.445 580.039 418.7 667.183 436.084C841.47 470.854 1053.28 562.122 1261.29 701.664Z" stroke="#2E2E2E"/>
<path d="M1266.72 705.374C1472.26 848.526 1634.21 1012.75 1729.88 1162.52C1777.72 1237.4 1808.98 1308.65 1820.85 1371.83C1832.71 1435.01 1825.19 1490.08 1795.53 1532.67C1765.87 1575.26 1716.83 1601.41 1653.45 1612.19C1590.07 1622.96 1512.41 1618.35 1425.58 1599.45C1251.93 1561.64 1041.74 1466.69 836.195 1323.54C630.652 1180.39 468.709 1016.17 373.033 866.397C325.195 791.512 293.938 720.261 282.069 657.08C270.2 593.901 277.722 538.832 307.383 496.243C337.044 453.654 386.088 427.503 449.463 416.728C512.84 405.952 590.508 410.563 677.336 429.466C850.989 467.272 1061.18 562.223 1266.72 705.374Z" stroke="#2E2E2E"/>
<path d="M1272.08 709.179C1475.09 855.896 1634.15 1022.92 1727.19 1174.33C1773.72 1250.04 1803.73 1321.83 1814.49 1385.21C1825.26 1448.58 1816.77 1503.51 1786.37 1545.58C1755.97 1587.64 1706.48 1612.93 1642.93 1622.6C1579.37 1632.27 1501.8 1626.3 1415.31 1605.89C1242.34 1565.06 1033.85 1466.45 830.833 1319.74C627.82 1173.02 468.767 1006 375.72 854.58C329.196 778.871 299.187 707.086 288.422 643.707C277.658 580.331 286.14 525.401 316.54 483.337C346.94 441.272 396.433 415.981 459.986 406.313C523.541 396.645 601.117 402.611 687.602 423.027C860.569 463.857 1069.07 562.462 1272.08 709.179Z" stroke="#2E2E2E"/>
<path d="M1277.37 713.075C1477.8 863.312 1633.91 1033.08 1724.3 1186.1C1769.5 1262.61 1798.25 1334.91 1807.9 1398.47C1817.56 1462.02 1808.12 1516.79 1776.99 1558.32C1745.86 1599.85 1695.94 1624.27 1632.22 1632.83C1568.51 1641.39 1491.05 1634.07 1404.93 1612.15C1232.71 1568.3 1025.96 1466.08 825.54 1315.84C625.118 1165.6 469.004 995.828 378.614 842.811C333.418 766.301 304.667 694.003 295.01 630.446C285.353 566.891 294.793 512.118 325.922 470.59C357.051 429.063 406.978 404.639 470.69 396.082C534.405 387.525 611.865 394.844 697.98 416.766C870.208 460.609 1076.95 562.837 1277.37 713.075Z" stroke="#2E2E2E"/>
<path d="M1282.6 717.064C1480.37 870.776 1633.5 1043.25 1721.2 1197.82C1765.06 1275.11 1792.54 1347.89 1801.09 1411.61C1809.63 1475.32 1799.24 1529.92 1767.39 1570.9C1735.54 1611.88 1685.2 1635.43 1621.34 1642.87C1557.49 1650.32 1480.17 1641.65 1394.45 1618.23C1223.01 1571.38 1018.08 1465.56 820.314 1311.85C622.544 1158.14 469.418 985.666 381.712 831.095C337.858 753.808 310.373 681.019 301.827 617.303C293.28 553.589 303.674 498.989 335.524 458.011C367.373 417.033 417.719 393.485 481.57 386.041C545.424 378.597 622.745 387.267 708.465 410.688C879.901 457.53 1084.83 563.351 1282.6 717.064Z" stroke="#2E2E2E"/>
<path d="M1287.76 721.143C1482.81 878.284 1632.91 1053.4 1717.9 1209.48C1760.4 1287.52 1786.61 1360.78 1794.04 1424.63C1801.48 1488.49 1790.13 1542.9 1757.57 1583.31C1725.01 1623.73 1674.26 1646.39 1610.29 1652.72C1546.32 1659.05 1469.16 1649.03 1383.86 1624.12C1213.27 1574.29 1010.22 1464.91 815.159 1307.77C620.102 1150.63 470.009 975.512 385.014 819.434C342.516 741.393 316.305 668.136 308.872 604.28C301.439 540.428 312.785 486.017 345.344 445.601C377.904 405.185 428.653 382.519 492.625 376.191C556.599 369.863 633.757 379.88 719.054 404.794C889.647 454.621 1092.7 564.002 1287.76 721.143Z" stroke="#2E2E2E"/>
<path d="M1292.84 725.312C1485.12 885.833 1632.14 1063.54 1714.39 1221.08C1755.52 1299.85 1780.45 1373.56 1786.77 1437.53C1793.09 1501.5 1780.79 1555.71 1747.53 1595.55C1714.27 1635.39 1663.14 1657.17 1599.07 1662.38C1534.99 1667.59 1458.02 1656.23 1373.17 1629.83C1203.47 1577.03 1002.36 1464.12 810.076 1303.6C617.791 1143.08 470.777 965.37 388.519 807.832C347.39 729.062 322.462 655.358 316.144 591.383C309.826 527.41 322.12 473.206 355.38 433.365C388.64 393.523 439.776 371.746 503.849 366.535C567.924 361.324 644.895 372.687 729.745 399.086C899.442 451.882 1100.55 564.791 1292.84 725.312Z" stroke="#2E2E2E"/>
<path d="M1297.85 729.569C1487.3 893.421 1631.19 1073.67 1710.69 1232.62C1750.44 1312.1 1774.07 1386.22 1779.27 1450.3C1784.47 1514.37 1771.24 1568.35 1737.29 1607.61C1703.34 1646.86 1651.83 1667.75 1587.67 1671.84C1523.52 1675.93 1446.76 1663.22 1362.38 1635.35C1193.63 1579.6 994.52 1463.2 805.066 1299.35C615.612 1135.49 471.722 955.244 392.226 796.294C352.477 716.818 328.839 642.69 323.639 578.615C318.439 514.541 331.677 460.56 365.627 421.305C399.577 382.05 451.086 361.168 515.24 357.077C579.396 352.985 656.157 365.689 740.533 393.565C909.283 449.315 1108.39 565.716 1297.85 729.569Z" stroke="#2E2E2E"/>
<path d="M1302.78 733.912C1489.35 901.046 1630.07 1083.78 1706.78 1244.09C1745.13 1324.25 1767.48 1398.78 1771.56 1462.94C1775.64 1527.09 1761.46 1580.83 1726.83 1619.49C1692.2 1658.14 1640.33 1678.12 1576.12 1681.1C1511.9 1684.07 1435.37 1670.02 1351.5 1640.68C1183.75 1581.99 986.697 1462.14 800.131 1295C613.566 1127.87 472.843 945.135 396.134 784.822C357.778 704.665 335.437 630.136 331.356 565.979C327.275 501.825 341.453 448.083 376.083 409.426C410.713 370.77 462.579 350.79 526.794 347.819C591.012 344.848 667.54 358.889 751.417 388.233C919.168 446.92 1116.22 566.778 1302.78 733.912Z" stroke="#2E2E2E"/>
<path d="M1307.64 738.34C1491.26 908.705 1628.77 1093.87 1702.67 1255.49C1739.62 1336.31 1760.66 1411.22 1763.62 1475.43C1766.58 1539.65 1751.47 1593.14 1716.17 1631.18C1680.87 1669.23 1628.66 1688.3 1564.41 1690.15C1500.15 1692 1423.87 1676.62 1340.52 1645.82C1173.82 1584.22 978.894 1460.94 795.274 1290.57C611.654 1120.21 474.142 935.047 400.242 773.42C363.291 692.605 342.254 617.697 339.293 553.479C336.333 489.263 351.446 435.777 386.746 397.731C422.045 359.684 474.252 340.613 538.509 338.763C602.769 336.913 679.04 352.288 762.392 383.091C929.093 444.697 1124.02 567.976 1307.64 738.34Z" stroke="#2E2E2E"/>
<path d="M1312.42 742.854C1493.04 916.397 1627.3 1103.93 1698.37 1266.82C1733.9 1348.27 1753.63 1423.53 1755.47 1487.79C1757.31 1552.05 1741.26 1605.26 1705.3 1642.69C1669.35 1680.11 1616.81 1698.27 1552.53 1699C1488.25 1699.73 1412.26 1683.02 1329.46 1650.77C1163.86 1586.26 971.113 1459.6 790.494 1286.06C609.876 1112.52 475.616 924.983 404.547 762.091C369.013 680.644 349.287 605.381 347.447 541.121C345.608 476.863 361.652 423.648 397.61 386.224C433.569 348.8 486.1 330.642 550.38 329.914C614.662 329.186 690.653 345.89 773.455 378.143C939.056 442.648 1131.8 569.311 1312.42 742.854Z" stroke="#2E2E2E"/>
<path d="M1317.12 747.45C1494.68 924.119 1625.65 1113.97 1693.86 1278.07C1727.97 1360.13 1746.38 1435.73 1747.1 1500.01C1747.82 1564.29 1730.85 1617.21 1694.24 1654.01C1657.63 1690.8 1604.79 1708.03 1540.51 1707.64C1476.23 1707.25 1400.54 1689.22 1318.31 1655.53C1153.86 1588.14 963.356 1458.13 785.793 1281.46C608.231 1104.8 477.264 914.948 409.05 750.84C374.942 668.785 356.533 593.189 355.815 528.907C355.097 464.627 372.068 411.701 408.674 374.909C445.28 338.118 498.12 320.881 562.402 321.274C626.688 321.668 702.376 339.695 784.602 373.389C949.052 440.775 1139.56 570.781 1317.12 747.45Z" stroke="#2E2E2E"/>
<path d="M1321.74 752.127C1496.19 931.868 1623.82 1123.97 1689.16 1289.24C1721.84 1371.88 1738.92 1447.79 1738.52 1512.07C1738.11 1576.36 1720.22 1628.98 1682.98 1665.13C1645.74 1701.27 1592.6 1717.58 1528.34 1716.07C1464.07 1714.55 1388.71 1695.21 1307.08 1660.08C1143.83 1589.84 955.626 1456.53 781.174 1276.79C606.722 1097.05 479.089 904.942 413.749 739.668C381.078 657.031 363.991 581.125 364.395 516.839C364.799 452.557 382.691 399.935 419.933 363.788C457.176 327.641 510.309 311.328 574.575 312.844C638.844 314.359 714.205 333.705 795.831 368.829C959.08 439.074 1147.29 572.386 1321.74 752.127Z" stroke="#2E2E2E"/>
<path d="M1326.28 756.884C1497.57 939.642 1621.83 1133.94 1684.27 1300.33C1715.5 1383.53 1731.26 1459.72 1729.73 1523.99C1728.2 1588.25 1709.4 1640.56 1671.53 1676.05C1633.66 1711.54 1580.25 1726.92 1516.02 1724.29C1451.79 1721.65 1376.78 1700.99 1295.78 1664.45C1133.78 1591.36 947.926 1454.79 776.637 1272.03C605.348 1089.27 481.087 894.969 418.642 728.581C387.418 645.385 371.658 569.193 373.184 504.924C374.71 440.658 393.518 388.357 431.385 352.865C469.253 317.374 522.662 301.991 586.892 304.628C651.125 307.265 726.138 327.923 807.138 364.466C969.135 437.549 1154.99 574.126 1326.28 756.884Z" stroke="#2E2E2E"/>
<path d="M1330.73 761.72C1498.8 947.439 1619.65 1143.88 1679.19 1311.33C1708.95 1395.06 1723.38 1471.52 1720.73 1535.75C1718.09 1599.98 1698.37 1651.94 1659.89 1686.77C1621.41 1721.59 1567.74 1736.04 1503.56 1732.29C1439.39 1728.53 1364.74 1706.56 1284.39 1668.61C1123.7 1592.71 940.257 1452.91 772.184 1267.19C604.111 1081.47 483.26 885.033 423.727 717.58C393.96 633.853 379.533 557.397 382.18 493.165C384.827 428.935 404.545 376.97 443.026 342.145C481.507 307.32 535.177 292.871 599.351 296.629C663.528 300.386 738.169 322.35 818.519 360.301C979.216 436.201 1162.66 576 1330.73 761.72Z" stroke="#2E2E2E"/>
<path d="M1335.1 766.632C1499.9 955.256 1617.31 1153.78 1673.91 1322.24C1702.21 1406.48 1715.3 1483.17 1711.53 1547.35C1707.77 1611.52 1687.14 1663.14 1648.06 1697.28C1608.98 1731.43 1555.06 1744.94 1490.97 1740.07C1426.86 1735.19 1352.62 1711.93 1272.94 1672.58C1113.59 1593.88 932.621 1450.91 767.815 1262.28C603.009 1073.66 485.605 875.136 429.004 706.67C400.703 622.435 387.612 545.739 391.38 481.563C395.148 417.39 415.769 365.776 454.852 331.628C493.936 297.48 547.849 283.97 611.948 288.847C676.049 293.724 750.295 316.988 829.971 356.335C989.319 435.028 1170.29 578.007 1335.1 766.632Z" stroke="#2E2E2E"/>
<path d="M1339.38 771.619C1500.87 963.091 1614.79 1163.63 1668.44 1333.06C1695.27 1417.77 1707.02 1494.69 1702.13 1558.79C1697.25 1622.89 1675.73 1674.13 1636.05 1707.59C1596.38 1741.05 1542.24 1753.62 1478.24 1747.63C1414.23 1741.63 1340.4 1717.07 1261.42 1676.34C1103.47 1594.88 925.023 1448.76 763.534 1257.29C602.045 1065.82 488.123 865.281 434.471 695.853C407.644 611.137 395.893 534.224 400.781 470.124C405.668 406.026 427.187 354.78 466.86 321.32C506.534 287.859 560.675 275.292 624.679 281.287C688.685 287.282 762.514 311.837 841.491 352.569C999.442 434.031 1177.89 580.147 1339.38 771.619Z" stroke="#2E2E2E"/>
<path d="M1343.57 776.682C1501.7 970.943 1612.1 1173.44 1662.79 1343.78C1688.13 1428.95 1698.54 1506.06 1692.53 1570.06C1686.53 1634.06 1664.12 1684.93 1623.87 1717.69C1583.62 1750.45 1529.26 1762.07 1465.37 1754.96C1401.48 1747.85 1328.09 1722.01 1249.84 1679.91C1093.33 1595.7 917.462 1446.49 759.339 1252.23C601.216 1057.97 490.812 855.473 440.125 685.134C414.781 599.964 404.374 522.857 410.38 458.852C416.385 394.849 438.795 343.986 479.046 311.223C519.297 278.46 573.649 266.84 637.539 273.951C701.431 281.062 774.82 306.902 853.074 349.006C1009.58 433.213 1185.45 582.42 1343.57 776.682Z" stroke="#2E2E2E"/>
<path d="M1347.68 781.817C1502.39 978.808 1609.24 1183.2 1656.95 1354.4C1680.8 1440 1689.86 1517.28 1682.74 1581.17C1675.62 1645.05 1652.32 1695.52 1611.51 1727.57C1570.69 1759.63 1516.14 1770.3 1452.39 1762.07C1388.63 1753.85 1315.7 1726.73 1238.2 1683.27C1083.18 1596.34 909.942 1444.09 755.234 1247.1C600.525 1050.11 493.671 845.713 445.965 674.516C422.111 588.916 413.052 511.639 420.173 447.749C427.295 383.86 450.589 333.397 491.406 301.341C532.223 269.285 586.77 258.616 650.525 266.84C714.284 275.065 787.21 302.183 864.717 345.646C1019.73 432.571 1192.97 584.825 1347.68 781.817Z" stroke="#2E2E2E"/>
<path d="M1351.69 787.021C1502.94 986.683 1606.21 1192.91 1650.92 1364.91C1673.28 1450.92 1680.99 1528.34 1672.75 1592.1C1664.52 1655.85 1640.35 1705.9 1598.98 1737.24C1557.61 1768.58 1502.88 1778.29 1439.28 1768.96C1375.67 1759.62 1303.23 1731.23 1226.5 1686.43C1073.02 1596.81 902.466 1441.55 751.219 1241.89C599.972 1042.23 496.702 836.004 451.99 663.999C429.634 577.996 421.925 500.573 430.161 436.817C438.396 373.062 462.567 323.013 503.937 291.674C545.307 260.336 600.032 250.62 663.635 259.956C727.24 269.293 799.682 297.679 876.419 342.488C1029.89 432.105 1200.45 587.36 1351.69 787.021Z" stroke="#2E2E2E"/>
<path d="M1355.62 792.296C1503.36 994.566 1603.01 1202.56 1644.72 1375.32C1665.57 1461.7 1671.92 1539.25 1662.58 1602.85C1653.23 1666.45 1628.19 1716.07 1586.28 1746.68C1544.37 1777.3 1489.48 1786.05 1426.05 1775.61C1362.62 1765.17 1290.68 1735.52 1214.74 1689.38C1062.86 1597.1 895.035 1438.89 747.295 1236.62C599.556 1034.35 499.901 826.349 458.198 653.59C437.346 567.21 430.989 489.665 440.336 426.061C449.683 362.46 474.724 312.841 516.635 282.229C558.546 251.617 613.432 242.858 676.862 253.302C740.294 263.748 812.23 293.394 888.173 339.535C1040.06 431.817 1207.88 590.025 1355.62 792.296Z" stroke="#2E2E2E"/>
<path d="M1359.45 797.638C1503.64 1002.46 1599.65 1212.16 1638.33 1385.62C1657.67 1472.35 1662.67 1550 1652.22 1613.43C1641.76 1676.86 1615.86 1726.03 1573.42 1755.91C1530.98 1785.78 1475.95 1793.58 1412.71 1782.03C1349.47 1770.48 1278.06 1739.58 1202.94 1692.12C1052.69 1597.21 887.651 1436.09 743.464 1231.28C599.278 1026.46 503.268 816.752 464.586 643.292C445.245 556.561 440.243 478.917 450.698 415.486C461.153 352.058 487.057 302.883 529.496 273.007C571.934 243.131 626.965 235.331 690.203 246.881C753.443 258.432 824.851 289.329 899.977 336.789C1050.23 431.707 1215.26 592.82 1359.45 797.638Z" stroke="#2E2E2E"/>
<path d="M1363.19 803.046C1503.78 1010.35 1596.11 1221.7 1631.76 1395.81C1649.58 1482.86 1653.23 1560.58 1641.67 1623.82C1630.11 1687.06 1603.35 1735.77 1560.4 1764.9C1517.45 1794.03 1462.29 1800.87 1399.26 1788.22C1336.23 1775.57 1265.37 1743.43 1191.09 1694.67C1042.52 1597.14 880.318 1433.17 739.727 1225.87C599.137 1018.56 506.802 807.215 471.154 633.106C453.329 546.051 449.682 468.331 461.243 405.093C472.804 341.856 499.562 293.141 542.515 264.01C585.469 234.88 640.627 228.041 703.654 240.693C766.683 253.346 837.54 285.485 911.827 334.248C1060.4 431.775 1222.6 595.743 1363.19 803.046Z" stroke="#2E2E2E"/>
<path d="M1366.83 808.518C1503.78 1018.24 1592.41 1231.17 1625.02 1405.88C1641.32 1493.23 1643.61 1571 1630.95 1634.03C1618.28 1697.05 1590.68 1745.29 1547.22 1773.67C1503.77 1802.05 1448.5 1807.92 1385.7 1794.17C1322.9 1780.42 1252.62 1747.05 1179.2 1697C1032.35 1596.89 873.036 1430.12 736.086 1220.39C599.135 1010.67 510.502 797.74 477.898 623.036C461.596 535.683 459.306 457.911 471.969 394.884C484.631 331.859 512.235 283.618 555.69 255.242C599.146 226.865 654.415 220.99 717.211 234.74C780.01 248.491 850.296 281.861 923.72 331.914C1070.57 432.018 1229.88 598.793 1366.83 808.518Z" stroke="#2E2E2E"/>
<path d="M1370.37 814.054C1503.64 1026.14 1588.55 1240.58 1618.1 1415.83C1632.87 1503.45 1633.81 1581.25 1620.04 1644.05C1606.28 1706.84 1577.84 1754.59 1533.9 1782.21C1489.95 1809.82 1434.59 1814.73 1372.04 1799.89C1309.5 1785.04 1239.8 1750.45 1167.26 1699.12C1022.19 1596.47 865.809 1426.94 732.539 1214.86C599.27 1002.78 514.366 788.333 484.816 613.086C470.041 525.461 469.109 447.662 482.87 384.865C496.63 322.071 525.072 274.319 569.016 246.705C612.96 219.092 668.323 214.182 730.87 229.026C793.419 243.871 863.112 278.463 935.651 329.789C1080.73 432.441 1237.11 601.97 1370.37 814.054Z" stroke="#2E2E2E"/>
<path d="M1373.82 819.65C1503.37 1034.03 1584.52 1249.92 1611.01 1425.65C1624.25 1513.52 1623.82 1591.33 1608.97 1653.87C1594.12 1716.42 1564.85 1763.67 1520.43 1790.51C1476.01 1817.35 1420.57 1821.29 1358.29 1805.36C1296.01 1789.43 1226.93 1753.62 1155.3 1701.04C1012.03 1595.87 858.638 1423.64 729.09 1209.26C599.542 994.885 518.394 778.993 491.907 603.257C478.664 515.388 479.089 437.584 493.944 375.037C508.798 312.493 538.069 265.245 582.488 238.402C626.907 211.56 682.348 207.617 744.626 223.55C806.907 239.484 875.985 275.287 947.618 327.872C1090.88 433.04 1244.28 605.273 1373.82 819.65Z" stroke="#2E2E2E"/>
<path d="M1377.17 825.306C1502.96 1041.91 1580.33 1259.19 1603.75 1435.36C1615.45 1523.44 1613.67 1601.23 1597.73 1663.51C1581.78 1725.78 1551.69 1772.51 1506.81 1798.58C1461.93 1824.64 1406.43 1827.61 1344.44 1810.6C1282.45 1793.58 1214 1756.57 1143.3 1702.75C1001.89 1595.1 851.527 1420.21 725.74 1203.61C599.953 987.001 522.585 769.726 499.169 593.554C487.461 505.468 489.245 427.683 505.189 365.405C521.132 303.129 551.223 256.399 596.104 230.336C640.985 204.272 696.486 201.298 758.476 218.316C820.469 235.334 888.912 272.337 959.616 326.164C1101.02 433.817 1251.39 608.7 1377.17 825.306Z" stroke="#2E2E2E"/>
<path d="M1380.43 831.02C1502.41 1049.79 1575.98 1268.38 1596.32 1444.93C1606.48 1533.21 1603.34 1610.95 1586.31 1672.94C1569.29 1734.93 1538.39 1781.13 1493.06 1806.4C1447.73 1831.68 1392.18 1833.69 1330.5 1815.59C1268.81 1797.49 1201.03 1759.3 1131.27 1704.25C991.766 1594.14 844.475 1416.66 722.488 1197.89C600.5 979.126 526.936 760.534 506.598 583.981C496.429 495.703 499.57 417.961 516.599 355.971C533.627 293.983 564.529 247.785 609.857 222.509C655.186 197.233 710.731 195.228 772.415 213.325C834.101 231.423 901.888 269.615 971.642 324.667C1111.15 434.771 1258.44 612.252 1380.43 831.02Z" stroke="#2E2E2E"/>
<path d="M1383.58 836.789C1501.73 1057.65 1571.47 1277.5 1588.72 1454.38C1597.35 1542.82 1592.85 1620.49 1574.74 1682.18C1556.63 1743.86 1524.93 1789.51 1479.17 1813.99C1433.4 1838.47 1377.83 1839.51 1316.47 1820.34C1255.11 1801.17 1188 1761.8 1119.22 1705.53C981.658 1593.01 837.487 1412.99 719.336 1192.12C601.186 971.261 531.448 751.418 514.194 574.537C505.567 486.096 510.064 408.42 528.172 346.737C546.279 285.056 577.983 239.404 623.746 214.923C669.509 190.442 725.08 189.406 786.439 208.577C847.8 227.749 914.91 267.118 983.692 323.379C1121.25 435.901 1265.43 615.926 1383.58 836.789Z" stroke="#2E2E2E"/>
<path d="M1386.63 842.613C1500.91 1065.5 1566.8 1286.53 1580.96 1463.69C1588.04 1552.26 1582.19 1629.85 1563.01 1691.21C1543.83 1752.56 1511.33 1797.66 1465.15 1821.33C1418.96 1845.01 1363.38 1845.08 1302.37 1824.84C1241.35 1804.6 1174.94 1764.07 1107.15 1706.61C971.572 1591.71 830.564 1409.19 716.286 1186.3C602.008 963.409 536.118 742.383 521.954 565.228C514.872 476.649 520.724 399.064 539.905 337.706C559.086 276.35 591.581 231.259 637.765 207.58C683.948 183.901 739.529 183.836 800.544 204.075C861.561 224.314 927.974 264.848 995.764 322.302C1131.34 437.208 1272.35 619.721 1386.63 842.613Z" stroke="#2E2E2E"/>
<path d="M1389.58 848.488C1499.95 1073.34 1561.97 1295.48 1573.04 1472.86C1578.57 1561.55 1571.37 1639.02 1551.12 1700.03C1530.87 1761.04 1497.59 1805.56 1451 1828.43C1404.41 1851.3 1348.84 1850.39 1288.19 1829.09C1227.53 1807.79 1161.84 1766.11 1095.06 1707.48C961.51 1590.22 823.71 1405.28 713.339 1180.42C602.968 955.573 540.945 733.43 529.875 556.055C524.34 467.366 531.545 389.895 551.795 328.881C572.044 267.869 605.321 223.351 651.91 200.482C698.5 177.613 754.073 178.518 814.726 199.818C875.381 221.12 941.076 262.807 1007.85 321.435C1141.4 438.689 1279.2 623.635 1389.58 848.488Z" stroke="#2E2E2E"/>
<path d="M1392.42 854.416C1498.85 1081.16 1556.99 1304.35 1564.96 1481.89C1568.95 1570.66 1560.39 1648 1539.08 1708.65C1517.77 1769.3 1483.72 1813.23 1436.74 1835.28C1389.75 1857.33 1334.21 1855.46 1273.93 1833.1C1213.66 1810.75 1148.7 1767.92 1082.96 1708.13C951.475 1588.57 816.923 1401.24 710.493 1174.5C604.063 947.756 545.927 724.565 537.954 547.023C533.968 458.251 542.524 380.917 563.835 320.266C585.146 259.617 619.195 215.687 666.176 193.635C713.158 171.582 768.707 173.457 828.979 195.812C889.252 218.169 954.21 260.997 1019.95 320.781C1151.44 440.348 1285.99 627.671 1392.42 854.416Z" stroke="#2E2E2E"/>
<path d="M1395.16 860.39C1497.62 1088.96 1551.85 1313.13 1556.72 1490.78C1559.16 1579.61 1549.26 1656.78 1526.89 1717.05C1504.52 1777.32 1469.71 1820.65 1422.35 1841.88C1374.99 1863.11 1319.49 1860.27 1259.61 1836.86C1199.74 1813.46 1135.54 1769.5 1070.85 1708.58C941.47 1586.73 810.208 1397.09 707.752 1168.52C605.295 939.957 551.063 715.785 546.19 538.132C543.754 449.304 553.658 372.131 576.025 311.861C598.39 251.593 633.201 208.264 680.56 187.035C727.92 165.806 783.428 168.649 843.3 192.054C903.174 215.459 967.375 259.413 1032.06 320.336C1161.44 442.18 1292.7 631.823 1395.16 860.39Z" stroke="#2E2E2E"/>
<path d="M1397.8 866.412C1496.25 1096.73 1546.56 1321.82 1548.33 1499.53C1549.22 1588.39 1537.97 1665.37 1514.55 1725.24C1491.14 1785.11 1455.58 1827.83 1407.86 1848.23C1360.13 1868.63 1304.68 1864.81 1245.23 1840.37C1185.77 1815.92 1122.35 1770.85 1058.73 1708.81C931.499 1584.73 803.567 1392.82 705.115 1162.5C606.664 932.182 556.352 707.098 554.58 529.386C553.694 440.529 564.944 363.541 588.359 303.671C611.773 243.802 647.335 201.087 695.058 180.688C742.78 160.289 798.23 164.1 857.684 188.546C917.141 212.993 980.565 258.061 1044.18 320.103C1171.41 444.186 1299.35 636.091 1397.8 866.412Z" stroke="#2E2E2E"/>
<path d="M1400.33 872.479C1494.75 1104.48 1541.12 1330.41 1539.79 1508.13C1539.13 1596.99 1526.53 1673.76 1502.08 1733.22C1477.62 1792.67 1441.32 1834.76 1393.25 1854.32C1345.18 1873.88 1289.8 1869.1 1230.79 1843.62C1171.76 1818.14 1109.14 1771.98 1046.61 1708.83C921.565 1582.55 797.001 1388.44 702.584 1156.44C608.167 924.432 561.791 698.504 563.121 520.788C563.786 431.929 576.378 355.15 600.835 295.697C625.29 236.246 661.592 194.158 709.663 174.595C757.734 155.032 813.109 159.811 872.128 185.29C931.149 210.771 993.776 256.939 1056.3 320.082C1181.35 446.367 1305.91 640.475 1400.33 872.479Z" stroke="#2E2E2E"/>
<path d="M1402.75 878.589C1493.11 1112.21 1535.53 1338.91 1531.1 1516.57C1528.89 1605.41 1514.96 1681.96 1489.47 1740.97C1463.98 1799.99 1426.95 1841.44 1378.54 1860.16C1330.13 1878.88 1274.85 1873.13 1216.29 1846.63C1157.72 1820.12 1095.91 1772.87 1034.49 1708.64C911.67 1580.19 790.513 1383.94 700.16 1150.32C609.806 916.709 567.38 690.006 571.812 512.341C574.027 423.507 587.957 346.958 613.447 287.941C638.937 228.927 675.967 187.479 724.373 168.757C772.778 150.036 828.061 155.781 886.626 182.286C945.194 208.793 1007.01 256.047 1068.42 320.272C1191.24 448.72 1312.4 644.973 1402.75 878.589Z" stroke="#2E2E2E"/>
<path d="M1405.07 884.741C1491.33 1119.9 1529.8 1347.31 1522.27 1524.87C1518.5 1613.65 1503.24 1689.94 1476.72 1748.51C1450.2 1807.07 1412.46 1847.86 1363.73 1865.74C1315.01 1883.61 1259.83 1876.9 1201.74 1849.38C1143.64 1821.85 1082.66 1773.53 1022.38 1708.24C901.818 1577.67 784.105 1379.33 697.842 1144.17C611.579 909.016 573.116 681.607 580.648 504.046C584.413 415.265 599.677 338.971 626.193 280.408C652.709 221.847 690.457 181.052 739.182 163.178C787.907 145.304 843.081 152.013 901.175 179.537C959.271 207.061 1020.25 255.387 1080.53 320.674C1201.09 451.246 1318.81 649.583 1405.07 884.741Z" stroke="#2E2E2E"/>
<path d="M1407.28 890.932C1489.43 1127.56 1523.91 1355.6 1513.29 1533.01C1507.97 1621.71 1491.38 1697.73 1463.84 1755.82C1436.31 1813.91 1397.86 1854.04 1348.83 1871.06C1299.8 1888.08 1244.75 1880.41 1187.14 1851.87C1129.54 1823.34 1069.41 1773.96 1010.28 1707.63C892.012 1574.97 777.777 1374.61 695.632 1137.98C613.486 901.355 578.998 673.31 589.627 495.907C594.942 407.205 611.535 331.189 639.069 273.098C666.602 215.009 705.057 174.879 754.086 157.858C803.116 140.837 858.164 148.508 915.769 177.041C973.376 205.576 1033.5 254.958 1092.63 321.287C1210.9 453.943 1325.14 654.305 1407.28 890.932Z" stroke="#2E2E2E"/>
<path d="M1409.38 897.161C1487.39 1135.19 1517.89 1363.8 1504.17 1540.99C1497.3 1629.58 1479.39 1705.3 1450.84 1762.9C1422.3 1820.5 1383.15 1859.95 1333.83 1876.12C1284.51 1892.28 1229.61 1883.65 1172.51 1854.11C1115.41 1824.58 1056.15 1774.15 998.187 1706.8C882.254 1572.1 771.534 1369.78 693.53 1131.75C615.527 893.729 585.024 665.116 598.748 487.927C605.61 399.33 623.527 323.616 652.071 266.014C680.614 208.414 719.763 168.961 769.082 152.799C818.401 136.636 873.307 145.266 930.405 174.801C987.505 204.336 1046.76 254.761 1104.73 322.112C1220.66 456.812 1331.38 659.136 1409.38 897.161Z" stroke="#2E2E2E"/>
<path d="M1411.38 903.425C1485.21 1142.77 1511.72 1371.88 1494.91 1548.81C1486.5 1637.27 1467.27 1712.66 1437.72 1769.76C1408.18 1826.85 1368.34 1865.61 1318.75 1880.91C1269.16 1896.21 1214.41 1886.62 1157.84 1856.1C1101.26 1825.57 1042.9 1774.12 986.113 1705.77C872.548 1569.06 765.376 1364.84 691.538 1125.49C617.701 886.139 591.192 657.028 608.006 480.105C616.413 391.642 635.649 316.252 665.194 259.157C694.738 202.064 734.569 163.3 784.163 148.001C833.757 132.702 888.504 142.289 945.078 172.815C1001.65 203.343 1060.02 254.794 1116.8 323.146C1230.37 459.849 1337.54 664.075 1411.38 903.425Z" stroke="#2E2E2E"/>
<path d="M1413.26 909.724C1482.91 1150.33 1505.41 1379.86 1485.51 1556.47C1475.56 1644.77 1455.02 1719.81 1424.48 1776.38C1393.94 1832.95 1353.44 1871.01 1303.59 1885.45C1253.74 1899.88 1199.16 1889.34 1143.13 1857.83C1087.1 1826.32 1029.64 1773.86 974.057 1704.52C862.895 1565.86 759.304 1359.79 689.655 1119.19C620.006 878.589 597.5 649.051 617.399 472.448C627.349 384.145 647.897 309.102 678.434 252.532C708.97 195.963 749.472 157.9 799.325 143.469C849.178 129.037 903.75 139.578 959.782 171.088C1015.82 202.598 1073.27 255.06 1128.86 324.393C1240.02 463.056 1343.61 669.122 1413.26 909.724Z" stroke="#2E2E2E"/>
<path d="M1415.03 916.053C1480.47 1157.83 1498.97 1387.73 1475.99 1563.96C1464.5 1652.07 1442.64 1726.75 1411.13 1782.78C1379.61 1838.8 1338.45 1876.15 1288.35 1889.71C1238.25 1903.27 1183.87 1891.78 1128.4 1859.3C1072.92 1826.81 1016.39 1773.36 962.026 1703.07C853.301 1562.48 753.321 1354.64 687.882 1112.86C622.443 871.079 603.946 641.183 626.925 464.954C638.414 376.839 660.269 302.166 691.788 246.137C723.307 190.11 764.467 152.76 814.564 139.201C864.662 125.641 919.041 137.133 974.515 169.615C1029.99 202.099 1086.52 255.555 1140.89 325.848C1249.61 466.43 1349.59 674.273 1415.03 916.053Z" stroke="#2E2E2E"/>
<path d="M1416.69 922.414C1477.9 1165.3 1492.38 1395.48 1466.33 1571.29C1453.31 1659.19 1430.15 1733.47 1397.66 1788.94C1365.17 1844.41 1323.36 1881.03 1273.04 1893.71C1222.71 1906.4 1168.54 1893.96 1113.64 1860.51C1058.74 1827.07 1003.15 1772.63 950.021 1701.4C843.766 1558.94 747.429 1349.39 686.22 1106.5C625.01 863.614 610.529 633.431 636.579 457.63C649.605 369.728 672.759 295.448 705.252 239.977C737.743 184.509 779.549 147.883 829.876 135.2C880.202 122.517 934.372 134.956 989.271 168.402C1044.17 201.849 1099.76 256.284 1152.89 327.514C1259.15 469.973 1355.48 679.528 1416.69 922.414Z" stroke="#2E2E2E"/>
<path d="M1418.24 928.803C1475.21 1172.72 1485.67 1403.12 1456.55 1578.44C1442 1666.1 1417.55 1739.97 1384.09 1794.86C1350.64 1849.75 1308.2 1885.65 1257.66 1897.45C1207.12 1909.25 1153.17 1895.87 1098.87 1861.47C1044.56 1827.07 989.925 1771.67 938.048 1699.53C834.295 1555.23 741.631 1344.03 684.669 1100.11C627.708 856.195 617.246 625.793 646.36 450.474C660.918 362.813 685.366 288.948 718.821 234.053C752.276 179.16 794.715 143.269 845.254 131.467C895.794 119.665 949.74 133.047 1004.05 167.446C1058.35 201.845 1112.99 257.242 1164.87 329.389C1268.62 473.681 1361.28 684.885 1418.24 928.803Z" stroke="#2E2E2E"/>
<path d="M1419.68 935.217C1472.38 1180.09 1478.82 1410.64 1446.65 1585.42C1430.56 1672.82 1404.83 1746.25 1370.42 1800.55C1336.01 1854.85 1292.96 1889.99 1242.22 1900.91C1191.48 1911.83 1137.78 1897.51 1084.08 1862.17C1030.38 1826.83 976.719 1770.48 926.109 1697.44C824.891 1551.36 735.926 1338.57 683.23 1093.7C630.535 848.823 624.095 618.275 656.265 443.49C672.35 356.096 698.083 282.67 732.492 228.367C766.9 174.066 809.958 138.921 860.696 128.003C911.435 117.084 965.138 131.406 1018.84 166.747C1072.54 202.089 1126.19 258.431 1176.8 331.473C1278.02 477.553 1366.99 690.343 1419.68 935.217Z" stroke="#2E2E2E"/>
<path d="M1421.01 941.656C1469.42 1187.41 1471.84 1418.04 1436.62 1592.24C1419.02 1679.33 1392 1752.3 1356.65 1806C1321.3 1859.69 1277.64 1894.08 1226.72 1904.11C1175.8 1914.14 1122.35 1898.88 1069.28 1862.61C1016.2 1826.33 963.536 1769.06 914.208 1695.15C815.555 1547.33 730.317 1333.02 681.903 1087.26C633.489 841.503 631.075 610.877 666.29 436.68C683.898 349.58 710.909 276.614 746.26 222.92C781.61 169.228 825.275 134.84 876.196 124.809C927.117 114.777 980.563 130.034 1033.64 166.307C1086.71 202.581 1139.38 259.851 1188.7 333.764C1287.36 481.589 1372.6 695.899 1421.01 941.656Z" stroke="#2E2E2E"/>
<path d="M1422.22 948.116C1466.34 1194.68 1464.73 1425.31 1426.48 1598.87C1407.36 1685.65 1379.08 1758.13 1342.79 1811.2C1306.51 1864.27 1262.25 1897.89 1211.16 1907.03C1160.08 1916.17 1106.9 1899.98 1054.47 1862.79C1002.04 1825.59 950.379 1767.41 902.35 1692.65C806.291 1543.13 724.807 1327.36 680.689 1080.8C636.572 834.234 638.182 603.601 676.432 430.046C695.558 343.267 723.838 270.783 760.121 217.714C796.402 164.647 840.661 131.026 891.749 121.885C942.838 112.744 996.009 128.931 1048.44 166.125C1100.87 203.32 1152.53 261.5 1200.56 336.263C1296.62 485.787 1378.11 701.552 1422.22 948.116Z" stroke="#2E2E2E"/>
<path d="M1423.33 954.597C1463.13 1201.89 1457.5 1432.46 1416.22 1605.33C1395.59 1691.76 1366.05 1763.74 1328.84 1816.16C1291.64 1868.59 1246.8 1901.43 1195.56 1909.68C1144.32 1917.93 1091.44 1900.82 1039.67 1862.71C987.89 1824.61 937.254 1765.54 890.536 1689.95C797.102 1538.77 719.396 1321.61 679.588 1074.32C639.78 827.021 645.416 596.451 686.689 423.589C707.326 337.158 736.866 265.178 774.07 212.751C811.272 160.325 856.111 127.482 907.351 119.234C958.591 110.985 1011.47 128.098 1063.25 166.201C1115.02 204.306 1165.66 263.379 1212.38 338.969C1305.81 490.146 1383.52 707.3 1423.33 954.597Z" stroke="#2E2E2E"/>
<path d="M1424.31 961.096C1459.8 1209.05 1450.14 1439.49 1405.86 1611.6C1383.71 1697.66 1352.92 1769.11 1314.81 1820.88C1276.7 1872.65 1231.29 1904.71 1179.92 1912.06C1128.54 1919.41 1075.97 1901.38 1024.86 1862.38C973.761 1823.38 924.163 1763.43 878.772 1687.03C787.99 1534.25 714.086 1315.77 678.6 1067.82C643.114 819.864 652.773 589.428 697.057 417.313C719.199 331.255 749.991 259.802 788.104 208.031C826.215 156.263 871.621 124.207 922.997 116.855C974.373 109.502 1026.95 127.535 1078.05 166.536C1129.15 205.538 1178.75 265.486 1224.14 341.88C1314.92 494.665 1388.83 713.142 1424.31 961.096Z" stroke="#2E2E2E"/>
<path d="M1425.19 967.611C1456.34 1216.15 1442.66 1446.38 1395.38 1617.69C1371.74 1703.35 1339.71 1774.26 1300.7 1825.36C1261.69 1876.45 1215.73 1907.71 1164.23 1914.16C1112.73 1920.62 1060.48 1901.67 1010.07 1861.78C959.655 1821.9 911.111 1761.09 867.06 1683.92C778.959 1529.57 708.878 1309.84 677.725 1061.3C646.572 812.767 660.251 582.535 707.532 411.219C731.173 325.56 763.208 254.655 802.218 203.558C841.227 152.463 887.185 121.204 938.682 114.75C990.179 108.295 1042.43 127.243 1092.84 167.129C1143.26 207.017 1191.8 267.822 1235.85 344.996C1323.95 499.342 1394.04 719.076 1425.19 967.611Z" stroke="#2E2E2E"/>
<path d="M1425.95 974.141C1452.76 1223.18 1435.06 1453.14 1384.8 1623.61C1359.67 1708.84 1326.4 1779.17 1286.51 1829.58C1246.61 1879.99 1200.11 1910.44 1148.51 1916C1096.91 1921.55 1045 1901.69 995.289 1860.93C945.577 1820.17 898.102 1758.53 855.404 1680.6C770.01 1524.74 703.775 1303.81 676.965 1054.77C650.154 805.732 667.849 575.773 718.112 405.309C743.244 320.075 776.512 249.74 816.408 199.332C856.303 148.925 902.799 118.474 954.401 112.918C1006 107.363 1057.91 127.22 1107.62 167.981C1157.34 208.743 1204.81 270.385 1247.51 348.316C1332.9 504.176 1399.14 725.1 1425.95 974.141Z" stroke="#2E2E2E"/>
<path d="M1426.59 980.683C1449.06 1230.15 1427.35 1459.77 1374.12 1629.33C1347.5 1714.11 1313.01 1783.86 1272.24 1833.56C1231.47 1883.26 1184.45 1912.9 1132.76 1917.55C1081.07 1922.21 1029.51 1901.45 980.524 1859.82C931.532 1818.2 885.139 1755.74 843.808 1677.08C761.147 1519.75 698.778 1297.7 676.318 1048.23C653.858 798.761 675.563 569.146 728.794 399.584C755.41 314.803 789.9 245.059 830.67 195.354C871.438 145.652 918.459 116.016 970.15 111.363C1021.84 106.709 1073.4 127.469 1122.39 169.091C1171.38 210.714 1217.77 273.175 1259.1 351.84C1341.77 509.167 1404.13 731.212 1426.59 980.683Z" stroke="#2E2E2E"/>
<path d="M1427.13 987.234C1445.23 1237.06 1419.52 1466.26 1363.34 1634.87C1335.25 1719.17 1299.55 1788.3 1257.91 1837.29C1216.28 1886.27 1168.75 1915.08 1116.99 1918.83C1065.23 1922.58 1014.04 1900.93 965.782 1858.46C917.523 1815.98 872.228 1752.72 832.276 1673.35C752.373 1514.6 693.889 1291.5 675.786 1041.68C657.683 791.853 683.393 562.652 739.575 394.045C767.666 309.741 803.368 240.61 844.999 191.625C886.629 142.641 934.16 113.831 985.924 110.08C1037.69 106.329 1088.88 127.986 1137.13 170.456C1185.39 212.928 1230.69 276.19 1270.64 355.563C1350.54 514.309 1409.02 737.409 1427.13 987.234Z" stroke="#2E2E2E"/>
<path d="M1427.55 993.795C1441.29 1243.9 1411.58 1472.62 1352.46 1640.22C1322.91 1724.02 1286 1792.51 1243.52 1840.77C1201.04 1889.02 1153.02 1916.99 1101.2 1919.84C1049.38 1922.69 998.573 1900.14 951.065 1856.83C903.555 1813.53 859.371 1749.48 820.81 1669.42C743.69 1509.31 689.108 1285.22 675.368 1035.12C661.628 785.015 691.334 556.297 750.45 388.697C780.008 304.896 816.911 236.398 859.391 188.147C901.869 139.897 949.896 111.921 1001.72 109.074C1053.54 106.227 1104.34 128.774 1151.85 172.08C1199.36 215.387 1243.54 279.43 1282.1 359.489C1359.22 519.605 1413.81 743.692 1427.55 993.795Z" stroke="#2E2E2E"/>
<path d="M1427.85 1000.36C1437.22 1250.67 1403.53 1478.83 1341.5 1645.37C1310.48 1728.65 1272.39 1796.49 1229.07 1843.99C1185.76 1891.49 1137.25 1918.63 1085.39 1920.57C1033.52 1922.51 983.124 1899.08 936.379 1854.95C889.632 1810.82 846.572 1746.02 809.414 1665.3C735.1 1503.86 684.438 1278.86 675.065 1028.55C665.692 778.247 699.384 550.083 761.417 383.54C792.433 300.267 830.526 232.424 873.841 184.922C917.155 137.421 965.662 110.287 1017.53 108.345C1069.39 106.403 1119.79 129.832 1166.53 173.961C1213.28 218.091 1256.34 282.895 1293.5 363.615C1367.81 525.052 1418.48 750.058 1427.85 1000.36Z" stroke="#2E2E2E"/>
<path d="M1428.04 1006.93C1433.04 1257.36 1395.37 1484.9 1330.44 1650.34C1297.98 1733.06 1258.71 1800.23 1214.57 1846.97C1170.43 1893.7 1121.46 1919.99 1069.57 1921.02C1017.68 1922.06 967.695 1897.75 921.728 1852.82C875.758 1807.88 833.836 1742.33 798.093 1660.98C726.607 1498.27 679.879 1272.41 674.876 1021.98C669.873 771.55 707.543 544.008 772.472 378.573C804.937 295.855 844.208 228.687 888.346 181.947C932.482 135.209 981.455 108.926 1033.34 107.89C1085.23 106.853 1135.22 131.159 1181.19 176.097C1227.16 221.036 1269.08 286.582 1304.82 367.938C1376.31 530.647 1423.03 756.503 1428.04 1006.93Z" stroke="#2E2E2E"/>
<path d="M1428.11 1013.51C1428.74 1263.99 1387.11 1490.84 1319.3 1655.11C1285.4 1737.25 1244.96 1803.72 1200.01 1849.69C1155.07 1895.65 1105.64 1921.07 1053.74 1921.2C1001.84 1921.33 952.293 1896.16 907.116 1850.42C861.938 1804.69 821.166 1738.42 786.848 1656.46C718.213 1492.52 675.434 1265.89 674.802 1015.41C674.17 764.927 715.805 538.078 783.612 373.801C817.516 291.662 857.953 225.19 902.9 179.227C947.845 133.267 997.27 107.843 1049.17 107.712C1101.07 107.581 1150.62 132.755 1195.8 178.489C1240.98 224.223 1281.75 290.49 1316.07 372.458C1384.7 536.39 1427.48 763.027 1428.11 1013.51Z" stroke="#2E2E2E"/>
<path d="M1428.07 1020.08C1424.33 1270.53 1378.74 1496.62 1308.08 1659.69C1272.75 1741.22 1231.16 1806.98 1185.41 1852.15C1139.67 1897.32 1089.81 1921.88 1037.92 1921.1C986.025 1920.33 936.92 1894.29 892.548 1847.78C848.175 1801.26 808.566 1734.29 775.684 1651.74C709.92 1486.63 671.103 1259.29 674.843 1008.83C678.583 758.381 724.17 532.293 794.834 369.225C830.166 287.689 871.757 221.933 917.499 176.762C963.24 131.593 1013.1 107.035 1064.99 107.81C1116.89 108.585 1165.99 134.621 1210.37 181.135C1254.74 227.652 1294.35 294.62 1327.23 377.174C1392.99 542.28 1431.81 769.628 1428.07 1020.08Z" stroke="#2E2E2E"/>
<path d="M1427.92 1026.65C1419.81 1277 1370.28 1502.26 1296.78 1664.07C1260.03 1744.98 1217.3 1810 1170.77 1854.36C1124.25 1898.73 1073.97 1922.41 1022.1 1920.73C970.225 1919.05 921.582 1892.16 878.029 1844.88C834.474 1797.59 796.04 1729.94 764.604 1646.83C701.732 1480.6 666.888 1252.61 674.998 1002.26C683.109 751.912 732.635 526.654 806.134 364.844C842.883 283.938 885.616 218.917 932.139 174.552C978.661 130.188 1028.94 106.504 1080.82 108.184C1132.69 109.865 1181.33 136.753 1224.88 184.035C1268.44 231.319 1306.87 298.969 1338.31 382.084C1401.18 548.312 1436.03 776.303 1427.92 1026.65Z" stroke="#2E2E2E"/>
<path d="M1427.64 1033.22C1415.17 1283.39 1361.72 1507.75 1285.4 1668.25C1247.25 1748.51 1203.39 1812.77 1156.1 1856.32C1108.81 1899.86 1058.12 1922.67 1006.29 1920.08C954.45 1917.49 906.283 1889.76 863.562 1841.73C820.839 1793.69 783.591 1725.38 753.61 1641.73C693.649 1474.43 662.79 1245.86 675.268 995.695C687.746 745.526 741.196 521.166 817.508 360.663C855.664 280.411 899.524 216.146 946.815 172.599C994.104 129.054 1044.79 106.251 1096.63 108.836C1148.46 111.422 1196.63 139.155 1239.35 187.19C1282.07 235.227 1319.32 303.537 1349.3 387.188C1409.26 554.488 1440.12 783.053 1427.64 1033.22Z" stroke="#2E2E2E"/>
<path d="M1427.26 1039.78C1410.42 1289.7 1353.06 1513.09 1273.96 1672.24C1234.41 1751.81 1189.43 1815.3 1141.39 1858.01C1093.35 1900.73 1042.27 1922.64 990.487 1919.15C938.705 1915.66 891.03 1887.09 849.153 1838.32C807.275 1789.55 771.225 1720.6 742.709 1636.43C685.677 1468.11 658.811 1239.04 675.653 989.131C692.496 739.218 749.853 515.825 828.954 356.679C868.505 277.104 913.481 213.615 961.524 170.9C1009.57 128.187 1060.64 106.272 1112.43 109.762C1164.21 113.251 1211.88 141.821 1253.76 190.594C1295.64 239.369 1331.69 308.319 1360.2 392.481C1417.24 560.802 1444.1 789.87 1427.26 1039.78Z" stroke="#2E2E2E"/>
<path d="M1426.76 1046.34C1405.56 1295.92 1344.31 1518.28 1262.45 1676.02C1221.51 1754.89 1175.43 1817.59 1126.65 1859.46C1077.87 1901.32 1026.42 1922.34 974.707 1917.95C922.994 1913.56 875.824 1884.16 834.805 1834.66C793.785 1785.17 758.944 1715.6 731.9 1630.95C677.815 1461.66 654.951 1232.16 676.152 982.577C697.353 732.996 758.601 510.638 840.468 352.896C881.401 274.024 927.478 211.329 976.26 169.459C1025.04 127.591 1076.49 106.571 1128.21 110.964C1179.92 115.357 1227.09 144.755 1268.11 194.251C1309.13 243.75 1343.97 313.318 1371.01 397.964C1425.1 567.255 1447.96 796.758 1426.76 1046.34Z" stroke="#2E2E2E"/>
<path d="M1426.15 1052.88C1400.59 1302.06 1335.47 1523.31 1250.87 1679.6C1208.56 1757.75 1161.4 1819.63 1111.89 1860.64C1062.39 1901.65 1010.58 1921.77 958.951 1916.47C907.322 1911.18 860.673 1880.96 820.524 1830.76C780.374 1780.55 746.752 1710.39 721.19 1625.28C670.067 1455.07 651.212 1225.2 676.766 976.031C702.32 726.858 767.439 505.603 852.046 349.314C894.35 271.168 941.514 209.287 991.019 168.275C1040.52 127.265 1092.33 107.146 1143.96 112.441C1195.59 117.735 1242.24 147.952 1282.39 198.156C1322.54 248.363 1356.16 318.529 1381.72 403.635C1432.85 573.843 1451.7 803.71 1426.15 1052.88Z" stroke="#2E2E2E"/>
<path d="M1425.42 1059.42C1395.52 1308.11 1326.55 1528.19 1239.23 1682.98C1195.57 1760.38 1147.33 1821.42 1097.12 1861.57C1046.91 1901.71 994.751 1920.92 943.222 1914.72C891.694 1908.53 845.579 1877.5 806.312 1826.6C767.045 1775.7 734.652 1704.96 710.58 1619.42C662.435 1448.35 647.595 1218.19 677.493 969.498C707.392 720.809 776.363 500.724 863.684 345.936C907.346 268.54 955.582 207.492 1005.8 167.35C1056.01 127.209 1108.16 107.998 1159.69 114.193C1211.22 120.388 1257.33 151.414 1296.6 202.312C1335.87 253.212 1368.26 323.954 1392.33 409.492C1440.48 580.567 1455.32 810.728 1425.42 1059.42Z" stroke="#2E2E2E"/>
<path d="M1424.58 1065.94C1390.34 1314.07 1317.54 1532.91 1227.53 1686.16C1182.53 1762.78 1133.23 1822.97 1082.33 1862.23C1031.42 1901.49 978.94 1919.79 927.527 1912.7C876.114 1905.6 830.548 1873.78 792.176 1822.2C753.802 1770.62 722.65 1699.33 700.074 1613.38C654.922 1441.49 644.101 1211.11 678.335 962.979C712.569 714.849 785.371 496.002 875.38 342.76C920.386 266.139 969.68 205.942 1020.59 166.682C1071.49 127.424 1123.97 109.126 1175.39 116.219C1226.8 123.312 1272.36 155.138 1310.74 206.714C1349.11 258.291 1380.26 329.588 1402.84 415.534C1447.99 587.423 1458.81 817.807 1424.58 1065.94Z" stroke="#2E2E2E"/>
<path d="M1423.62 1072.44C1385.06 1319.94 1308.45 1537.48 1215.78 1689.13C1169.45 1764.95 1119.11 1824.28 1067.53 1862.64C1015.94 1901.01 963.151 1918.39 911.87 1910.4C860.589 1902.41 815.584 1869.79 778.118 1817.55C740.651 1765.31 710.747 1693.48 689.674 1607.16C647.53 1434.51 640.731 1203.97 679.29 956.474C717.85 708.98 794.459 491.436 887.13 339.79C933.466 263.965 983.803 204.637 1035.39 166.272C1086.97 127.908 1139.76 110.529 1191.04 118.518C1242.32 126.508 1287.33 159.124 1324.79 211.362C1362.26 263.601 1392.17 335.43 1413.24 421.757C1455.38 594.408 1462.18 824.946 1423.62 1072.44Z" stroke="#2E2E2E"/>
<path d="M1422.55 1078.93C1379.68 1325.71 1299.29 1541.88 1203.98 1691.89C1156.33 1766.89 1104.97 1825.34 1052.72 1862.79C1000.48 1900.25 947.389 1916.71 896.255 1907.82C845.121 1898.94 800.693 1865.54 764.144 1812.66C727.594 1759.78 698.949 1687.43 679.386 1600.75C640.26 1427.39 637.486 1196.77 680.359 949.988C723.232 703.204 803.627 487.031 898.93 337.024C946.582 262.02 997.947 203.579 1050.19 166.12C1102.44 128.663 1155.52 112.207 1206.66 121.091C1257.79 129.974 1302.22 163.371 1338.77 216.254C1375.32 269.139 1403.96 341.48 1423.53 428.161C1462.65 601.521 1465.43 832.143 1422.55 1078.93Z" stroke="#2E2E2E"/>
<path d="M1421.37 1085.39C1374.2 1331.39 1290.04 1546.13 1192.14 1694.45C1143.18 1768.61 1090.81 1826.15 1037.91 1862.69C985.026 1899.23 931.658 1914.75 880.687 1904.98C829.716 1895.21 785.877 1861.04 750.257 1807.53C714.635 1754.01 687.257 1681.18 669.21 1594.17C633.116 1420.15 634.367 1189.52 681.541 943.521C728.714 697.524 812.869 482.786 910.775 334.466C959.729 260.305 1012.11 202.77 1065 166.228C1117.89 129.688 1171.25 114.162 1222.23 123.936C1273.2 133.71 1317.04 167.877 1352.66 221.39C1388.28 274.905 1415.66 347.735 1433.7 434.744C1469.8 608.761 1468.55 839.396 1421.37 1085.39Z" stroke="#2E2E2E"/>
<path d="M1420.08 1091.84C1368.62 1336.98 1280.73 1550.21 1180.25 1696.8C1130.01 1770.1 1076.63 1826.71 1023.11 1862.32C969.595 1897.93 915.964 1912.53 865.171 1901.86C814.379 1891.2 771.143 1856.27 736.462 1802.15C701.78 1748.02 675.677 1674.72 659.151 1587.41C626.1 1412.79 631.376 1182.21 682.835 937.076C734.295 691.939 822.185 478.703 922.665 332.114C972.905 258.818 1026.28 202.206 1079.8 166.593C1133.32 130.982 1186.95 116.389 1237.74 127.051C1288.53 137.714 1331.77 172.641 1366.45 226.767C1401.13 280.896 1427.24 354.192 1443.76 441.503C1476.81 616.123 1471.54 846.702 1420.08 1091.84Z" stroke="#2E2E2E"/>
<path d="M1418.67 1098.26C1362.94 1342.46 1271.34 1554.13 1168.32 1698.94C1116.81 1771.35 1062.46 1827.02 1008.32 1861.7C954.189 1896.37 900.312 1910.02 849.713 1898.48C799.114 1886.93 756.495 1851.25 722.764 1796.53C689.031 1741.8 664.211 1668.06 649.212 1580.48C619.213 1405.31 628.512 1174.86 684.242 930.653C739.972 686.452 831.57 474.782 934.593 329.969C986.105 257.561 1040.46 201.889 1094.59 167.216C1148.73 132.544 1202.6 118.89 1253.2 130.437C1303.8 141.984 1346.42 177.66 1380.15 232.384C1413.88 287.109 1438.7 360.85 1453.7 448.436C1483.7 623.607 1474.4 854.058 1418.67 1098.26Z" stroke="#2E2E2E"/>
<path d="M1417.15 1104.66C1357.17 1347.85 1261.89 1557.89 1156.36 1700.88C1103.59 1772.38 1048.27 1827.09 993.541 1860.82C938.812 1894.54 884.705 1907.25 834.315 1894.82C783.925 1882.39 741.935 1845.98 709.164 1790.67C676.392 1735.37 652.863 1661.21 639.394 1573.37C612.457 1397.7 625.777 1167.45 685.76 924.258C745.744 681.066 841.022 471.027 946.557 328.034C999.325 256.537 1054.64 201.822 1109.37 168.099C1164.1 134.377 1218.21 121.664 1268.6 134.093C1318.99 146.522 1360.98 182.936 1393.75 238.24C1426.52 293.546 1450.05 367.708 1463.52 455.543C1490.46 631.21 1477.14 861.464 1417.15 1104.66Z" stroke="#2E2E2E"/>
<path d="M1415.52 1111.03C1351.3 1353.13 1252.38 1561.48 1144.36 1702.61C1090.35 1773.17 1034.09 1826.91 978.778 1859.68C923.469 1892.44 869.148 1904.2 818.983 1890.9C768.818 1877.59 727.47 1840.45 695.669 1784.58C663.868 1728.71 641.636 1654.15 629.702 1566.09C605.835 1389.98 623.172 1160 687.39 917.89C751.609 675.782 850.538 467.438 958.552 326.309C1012.56 255.743 1068.82 202.002 1124.13 169.239C1179.44 136.477 1233.76 124.711 1283.93 138.017C1334.09 151.323 1375.44 188.465 1407.24 244.333C1439.05 300.202 1461.28 374.764 1473.21 462.82C1497.08 638.931 1479.74 868.917 1415.52 1111.03Z" stroke="#2E2E2E"/>
<path d="M1413.78 1117.36C1345.35 1358.31 1242.8 1564.9 1132.34 1704.12C1077.11 1773.73 1019.91 1826.49 964.039 1858.28C908.166 1890.07 853.648 1900.89 803.723 1886.71C753.798 1872.53 713.104 1834.67 682.283 1778.25C651.461 1721.84 630.535 1646.9 620.14 1558.65C599.35 1382.15 620.697 1152.5 689.131 911.55C757.565 670.599 860.116 464.014 970.577 324.791C1025.81 255.179 1083 202.428 1138.88 170.635C1194.75 138.843 1249.27 128.027 1299.19 142.207C1349.12 156.386 1389.81 194.244 1420.63 250.658C1451.45 307.074 1472.38 382.013 1482.77 470.264C1503.56 646.764 1482.22 876.413 1413.78 1117.36Z" stroke="#2E2E2E"/>
<path d="M1411.93 1123.67C1339.3 1363.39 1233.16 1568.16 1120.29 1705.43C1063.85 1774.07 1005.75 1825.81 949.325 1856.62C892.906 1887.44 838.208 1897.3 788.538 1882.25C738.867 1867.2 698.841 1828.64 669.009 1771.7C639.176 1714.75 619.561 1639.46 610.707 1551.04C593.001 1374.2 618.353 1144.96 690.982 905.243C763.611 665.524 869.751 460.759 982.625 323.485C1039.06 254.847 1097.17 203.103 1153.59 172.29C1210.01 141.478 1264.71 131.615 1314.38 146.664C1364.05 161.713 1404.07 200.275 1433.9 257.218C1463.74 314.164 1483.35 389.456 1492.21 477.875C1509.91 654.711 1484.56 883.952 1411.93 1123.67Z" stroke="#2E2E2E"/>
<path d="M1409.97 1129.95C1333.17 1368.36 1223.47 1571.24 1108.22 1706.52C1050.59 1774.17 991.593 1824.89 934.643 1854.71C877.695 1884.54 822.833 1893.44 773.433 1877.53C724.033 1861.62 684.685 1822.36 655.852 1764.91C627.018 1707.45 608.719 1631.83 601.41 1543.26C586.793 1366.15 616.142 1137.38 692.943 898.967C769.745 660.552 879.442 457.671 994.695 322.388C1052.32 254.746 1111.32 204.023 1168.27 174.2C1225.22 144.378 1280.08 135.471 1329.48 151.384C1378.88 167.297 1418.23 206.552 1447.06 264.007C1475.9 321.465 1494.19 397.088 1501.5 485.648C1516.12 662.767 1486.77 891.53 1409.97 1129.95Z" stroke="#2E2E2E"/>
<path d="M1407.9 1136.19C1326.95 1373.22 1213.73 1574.16 1096.13 1707.41C1037.33 1774.04 977.458 1823.72 919.996 1852.55C862.536 1881.37 807.527 1889.32 758.412 1872.55C709.298 1855.77 670.641 1815.84 642.815 1757.89C614.988 1699.94 598.012 1624 592.25 1535.33C580.726 1357.98 614.063 1129.77 695.013 892.729C775.964 655.69 889.186 454.755 1006.78 321.504C1065.58 254.877 1125.46 205.192 1182.92 176.367C1240.38 147.543 1295.39 139.595 1344.5 156.368C1393.62 173.141 1432.27 213.077 1460.1 271.027C1487.93 328.978 1504.9 404.909 1510.66 493.584C1522.19 670.93 1488.85 899.147 1407.9 1136.19Z" stroke="#2E2E2E"/>
<path d="M1405.72 1142.39C1320.65 1377.98 1203.93 1576.91 1084.03 1708.09C1024.08 1773.68 963.345 1822.31 905.389 1850.13C847.435 1877.94 792.295 1884.93 743.481 1867.3C694.666 1849.67 656.713 1809.07 629.902 1750.64C603.091 1692.21 587.442 1616 583.229 1527.24C574.801 1349.72 612.117 1122.12 697.192 886.527C782.267 650.938 898.978 452.009 1018.88 320.831C1078.83 255.24 1139.57 206.607 1197.52 178.79C1255.48 150.973 1310.62 143.987 1359.43 161.614C1408.25 179.242 1446.2 219.846 1473.01 278.273C1499.82 336.701 1515.47 412.917 1519.68 501.678C1528.11 679.199 1490.8 906.799 1405.72 1142.39Z" stroke="#2E2E2E"/>
<path d="M1403.43 1148.55C1314.26 1382.62 1194.1 1579.48 1071.92 1708.55C1010.83 1773.08 949.26 1820.65 890.827 1847.45C832.396 1874.25 777.143 1880.27 728.643 1861.8C680.144 1843.32 642.905 1802.06 617.118 1743.17C591.33 1684.29 577.015 1607.81 574.351 1518.99C569.023 1341.35 610.304 1114.43 699.478 880.365C788.652 646.295 908.817 449.434 1030.99 320.368C1092.08 255.834 1153.65 208.269 1212.09 181.467C1270.52 154.666 1325.77 148.642 1374.27 167.119C1422.77 185.596 1460.01 226.857 1485.79 285.742C1511.58 344.63 1525.9 421.107 1528.56 509.928C1533.89 687.569 1492.61 914.483 1403.43 1148.55Z" stroke="#2E2E2E"/>
<path d="M1401.04 1154.67C1307.8 1387.15 1184.21 1581.88 1059.8 1708.8C997.6 1772.26 935.206 1818.74 876.314 1844.52C817.425 1870.3 762.075 1875.35 713.905 1856.03C665.736 1836.71 629.222 1794.81 604.467 1735.48C579.711 1676.15 566.732 1599.44 565.619 1510.58C563.392 1332.88 608.627 1106.72 701.873 874.241C795.118 641.763 918.701 447.029 1043.11 320.115C1105.31 256.657 1167.71 210.174 1226.6 184.396C1285.49 158.618 1340.84 153.56 1389.01 172.881C1437.18 192.201 1473.69 234.105 1498.45 293.432C1523.2 352.761 1536.18 429.476 1537.29 518.33C1539.52 696.037 1494.29 922.196 1401.04 1154.67Z" stroke="#2E2E2E"/>
<path d="M1398.54 1160.75C1301.25 1391.57 1174.29 1584.11 1047.69 1708.84C984.383 1771.2 921.187 1816.59 861.855 1841.33C802.524 1866.08 747.094 1870.17 699.269 1850.01C651.444 1829.85 615.668 1787.32 591.952 1727.57C568.235 1667.82 556.597 1590.89 557.034 1502.03C557.909 1324.31 607.085 1098.97 704.373 868.16C801.662 637.346 928.624 444.798 1055.23 320.075C1118.53 257.712 1181.73 212.324 1241.06 187.578C1300.39 162.833 1355.82 158.741 1403.64 178.9C1451.47 199.058 1487.25 241.593 1510.96 301.342C1534.68 361.094 1546.32 438.024 1545.88 526.884C1545 704.603 1495.83 929.938 1398.54 1160.75Z" stroke="#2E2E2E"/>
<path d="M1395.93 1166.79C1294.63 1395.87 1164.33 1586.17 1035.57 1708.67C971.186 1769.91 907.208 1814.19 847.452 1837.9C787.699 1861.61 732.206 1864.73 684.74 1843.74C637.275 1822.75 602.246 1779.6 579.576 1719.44C556.906 1659.29 546.612 1582.16 548.6 1493.33C552.577 1315.65 605.678 1091.21 706.979 862.125C808.281 633.044 938.585 442.741 1067.35 320.246C1131.73 258.998 1195.71 214.72 1255.46 191.013C1315.22 167.307 1370.71 164.183 1418.17 185.173C1465.64 206.163 1500.67 249.316 1523.34 309.47C1546.01 369.627 1556.3 446.748 1554.31 535.588C1550.34 713.264 1497.24 937.706 1395.93 1166.79Z" stroke="#2E2E2E"/>
<path d="M1393.22 1172.78C1287.94 1400.05 1154.33 1588.05 1023.45 1708.28C958.013 1768.4 893.273 1811.55 833.112 1834.21C772.954 1856.87 717.416 1859.03 670.323 1837.21C623.231 1815.4 588.961 1771.64 567.344 1711.1C545.727 1650.56 536.781 1573.27 540.319 1484.48C547.396 1306.9 604.406 1083.41 709.69 856.136C814.975 628.858 948.58 440.858 1079.46 320.629C1144.9 260.514 1209.64 217.359 1269.8 194.699C1329.96 172.039 1385.5 169.885 1432.59 191.7C1479.68 213.515 1513.95 257.273 1535.57 317.813C1557.19 378.356 1566.13 455.646 1562.59 544.437C1555.52 722.016 1498.51 945.498 1393.22 1172.78Z" stroke="#2E2E2E"/>
</svg>
