<svg width="54" height="61" viewBox="0 0 54 61" fill="none" xmlns="http://www.w3.org/2000/svg">
<rect width="54" height="50" rx="6" fill="white"/>
<path d="M24.2089 23.226C25.3249 23.478 26.2069 24.036 26.8549 24.9C27.5209 25.746 27.8539 26.718 27.8539 27.816C27.8539 29.436 27.2959 30.705 26.1799 31.623C25.0639 32.541 23.4979 33 21.4819 33H12.0589V13.965H21.1849C23.1289 13.965 24.6499 14.397 25.7479 15.261C26.8639 16.125 27.4219 17.34 27.4219 18.906C27.4219 20.022 27.1249 20.958 26.5309 21.714C25.9549 22.452 25.1809 22.956 24.2089 23.226ZM17.3509 21.525H20.0239C21.3559 21.525 22.0219 20.976 22.0219 19.878C22.0219 18.744 21.3559 18.177 20.0239 18.177H17.3509V21.525ZM20.4289 28.734C21.7609 28.734 22.4269 28.176 22.4269 27.06C22.4269 26.484 22.2469 26.043 21.8869 25.737C21.5449 25.431 21.0499 25.278 20.4019 25.278H17.3509V28.734H20.4289ZM35.4651 18.204V21.309H41.5401V25.332H35.4651V28.761H42.3501V33H30.1731V13.965H42.3501V18.204H35.4651Z" fill="black"/>
<path fill-rule="evenodd" clip-rule="evenodd" d="M26.4422 43.3814L32.4883 50.0069L38.957 49.9931C38.9547 49.5727 38.8057 49.1529 38.5094 48.8316L29.9796 39.4845C29.3963 38.8385 28.4429 38.8385 27.8534 39.4845L26.4422 41.0515C25.8526 41.6907 25.8526 42.7354 26.4422 43.3814Z" fill="black"/>
<path d="M44.5305 49.9931L38.4843 56.6186C37.8948 57.2646 37.8948 58.3093 38.4843 58.9485L39.9018 60.5017C40.4913 61.1478 41.4447 61.1478 42.028 60.5017L50.5578 51.1546C50.8538 50.8372 51.0012 50.4158 51 49.9931H44.5305Z" fill="white"/>
<path d="M29.9858 60.5155L38.5157 51.1684C38.8121 50.8436 38.9594 50.4181 38.957 49.9931L32.4883 50.0069L26.4422 56.6323C25.8526 57.2715 25.8526 58.3162 26.4422 58.9622L27.8596 60.5155C28.4429 61.1615 29.3963 61.1615 29.9858 60.5155Z" fill="white"/>
<path d="M50.5578 48.8316L42.028 39.4845C41.4384 38.8385 40.4851 38.8385 39.9018 39.4845L38.4843 41.0378C37.8948 41.6838 37.8948 42.7285 38.4843 43.3677L44.5305 49.9931H51C50.9988 49.5739 50.8514 49.1533 50.5578 48.8316Z" fill="black"/>
</svg>
